<svg width="48" height="48" viewBox="0 0 48 48" fill="none" xmlns="http://www.w3.org/2000/svg">
<path d="M0 24C0 10.7452 10.7452 0 24 0C37.2548 0 48 10.7452 48 24C48 37.2548 37.2548 48 24 48C10.7452 48 0 37.2548 0 24Z" fill="none"/>
<path d="M31 17H17C15.8954 17 15 17.8954 15 19V29C15 30.1046 15.8954 31 17 31H31C32.1046 31 33 30.1046 33 29V19C33 17.8954 32.1046 17 31 17Z" stroke="#9A4DFF" stroke-width="2" stroke-linecap="round" stroke-linejoin="round"/>
<path d="M15 19L24 25L33 19" stroke="#9A4DFF" stroke-width="2" stroke-linecap="round" stroke-linejoin="round"/>
</svg>
