<svg width="24" height="24" viewBox="0 0 24 24" fill="none" xmlns="http://www.w3.org/2000/svg">
<rect width="24" height="24" rx="12" fill="#9A4DFF"/>
<path fill-rule="evenodd" clip-rule="evenodd" d="M7.88906 16.1109C7.78908 16.0109 7.73291 15.8753 7.73291 15.7339C7.73291 15.5924 7.78908 15.4568 7.88906 15.3568L14.9792 8.26666H10.4C10.2585 8.26666 10.1229 8.21047 10.0229 8.11045C9.92285 8.01043 9.86666 7.87478 9.86666 7.73333C9.86666 7.59188 9.92285 7.45623 10.0229 7.35621C10.1229 7.25619 10.2585 7.2 10.4 7.2H16.2667C16.4081 7.2 16.5438 7.25619 16.6438 7.35621C16.7438 7.45623 16.8 7.59188 16.8 7.73333V13.6C16.8 13.7414 16.7438 13.8771 16.6438 13.9771C16.5438 14.0771 16.4081 14.1333 16.2667 14.1333C16.1252 14.1333 15.9896 14.0771 15.8895 13.9771C15.7895 13.8771 15.7333 13.7414 15.7333 13.6V9.0208L8.64426 16.1109C8.59472 16.1606 8.53587 16.2 8.47107 16.2269C8.40628 16.2538 8.33681 16.2676 8.26666 16.2676C8.19651 16.2676 8.12705 16.2538 8.06225 16.2269C7.99746 16.2 7.9386 16.1606 7.88906 16.1109Z" fill="white"/>
</svg>
