<svg width="24" height="24" viewBox="0 0 24 24" fill="none" xmlns="http://www.w3.org/2000/svg">
<rect width="24" height="24" rx="12" fill="var(--background-primary_theme)"/>
<path d="M6.6665 9.33333C6.6665 8.97971 6.80698 8.64057 7.05703 8.39052C7.30708 8.14048 7.64621 8 7.99983 8H11.9998C12.3535 8 12.6926 8.14048 12.9426 8.39052C13.1927 8.64057 13.3332 8.97971 13.3332 9.33333V14.6667C13.3332 15.0203 13.1927 15.3594 12.9426 15.6095C12.6926 15.8595 12.3535 16 11.9998 16H7.99983C7.64621 16 7.30708 15.8595 7.05703 15.6095C6.80698 15.3594 6.6665 15.0203 6.6665 14.6667V9.33333ZM14.6665 10.6667L16.1945 9.13867C16.2876 9.04527 16.4064 8.98161 16.5358 8.95575C16.6651 8.92988 16.7992 8.94297 16.9212 8.99337C17.0431 9.04376 17.1473 9.12918 17.2206 9.23883C17.294 9.34848 17.3331 9.47742 17.3332 9.60933V14.3907C17.3331 14.5226 17.294 14.6515 17.2206 14.7612C17.1473 14.8708 17.0431 14.9562 16.9212 15.0066C16.7992 15.057 16.6651 15.0701 16.5358 15.0442C16.4064 15.0184 16.2876 14.9547 16.1945 14.8613L14.6665 13.3333V10.6667Z" fill="var(--background-primary)"/>
</svg>
